<?xml version="1.0" encoding="utf-8"?>
<!-- Generator: Adobe Illustrator 22.1.0, SVG Export Plug-In . SVG Version: 6.00 Build 0)  -->
<svg version="1.1" id="Layer_1" xmlns="http://www.w3.org/2000/svg" xmlns:xlink="http://www.w3.org/1999/xlink" x="0px" y="0px"
	 viewBox="0 0 489.6 7.3" style="enable-background:new 0 0 489.6 7.3;" xml:space="preserve">
<style type="text/css">
	.st0{fill:#FA9B80;}
	.st1{fill:#90D884;}
	.st2{fill:#C19A7D;}
	.st3{fill:#798BC6;}
	.st4{fill:#FCDC76;}
	.st5{fill:#A5A5A5;}
	.st6{fill:#FA8388;}
	.st7{fill:#7EBF8F;}
	.st8{fill:#D77FC9;}
	.st9{fill:#C6C7C9;}
</style>
<polygon class="st0" points="107.7,7.3 58.7,7.3 69.2,0 118.1,0 "/>
<polygon class="st1" points="156.7,7.3 107.7,7.3 118.1,0 167.1,0 "/>
<polygon class="st2" points="205.6,7.3 156.7,7.3 167.1,0 216,0 "/>
<polygon class="st3" points="254.6,7.3 205.6,7.3 216,0 265,0 "/>
<polygon class="st4" points="303.5,7.3 254.6,7.3 265,0 313.9,0 "/>
<polygon class="st5" points="352.5,7.3 303.5,7.3 313.9,0 362.9,0 "/>
<polygon class="st6" points="401.4,7.3 352.5,7.3 362.9,0 411.9,0 "/>
<polygon class="st7" points="450.4,7.3 401.4,7.3 411.9,0 460.8,0 "/>
<polygon class="st8" points="489.6,0 489.6,7.3 450.4,7.3 460.8,0 "/>
<polygon class="st8" points="20.2,0 9.8,7.3 0,7.3 0,0 "/>
<polygon class="st9" points="69.2,0 58.7,7.3 9.8,7.3 20.2,0 "/>
</svg>
